Coordinates
version=1
nRows=8
nColumns=40
inDegrees=yes

Units are S.I. units (second, meters, Newtons, ...)
Angles are in degrees.

endheader
time	pelvis_tilt	pelvis_list	pelvis_rotation	pelvis_tx	pelvis_ty	pelvis_tz	hip_flexion_r	hip_adduction_r	hip_rotation_r	knee_angle_r	knee_angle_r_beta	ankle_angle_r	subtalar_angle_r	mtp_angle_r	hip_flexion_l	hip_adduction_l	hip_rotation_l	knee_angle_l	knee_angle_l_beta	ankle_angle_l	subtalar_angle_l	mtp_angle_l	lumbar_extension	lumbar_bending	lumbar_rotation	arm_flex_r	arm_add_r	arm_rot_r	elbow_flex_r	pro_sup_r	wrist_flex_r	wrist_dev_r	arm_flex_l	arm_add_l	arm_rot_l	elbow_flex_l	pro_sup_l	wrist_flex_l	wrist_dev_l
     38.12250000	     -2.72276527	     -3.50487018	      3.61779957	      1.12156933	      0.93479452	      0.53484828	      8.54545199	      1.87958795	    -16.27246273	     14.59885639	     14.59885639	     10.39962235	     -1.27013831	     -5.12301417	     31.15694305	    -10.66443666	     -0.56488258	     44.24661477	     44.24661477	      9.79274424	    -17.66238130	     11.52929783	    -10.65894798	      5.69930875	      2.76875378	     13.02194256	    -22.13015462	     -3.45235822	     52.90947826	     45.27260860	      0.00000000	      0.00000000	      2.27925072	     -9.42429602	    -10.63339065	     31.34372382	     46.82818210	      0.00000000	      0.00000000
     38.13585714	     -2.77726547	     -3.44679738	      4.10778727	      1.12040737	      0.93493015	      0.53438274	      7.89774235	      1.86872622	    -16.84723776	     13.82612825	     13.82612825	     10.02959413	     -0.92316831	     -6.44992942	     31.31594527	    -10.06878343	     -0.21700030	     40.44188398	     40.44188398	      8.62829004	    -17.33881065	      9.75024528	    -10.75635936	      5.75958229	      2.49626421	     13.94316908	    -22.68994174	     -1.78753851	     53.65986972	     45.19802279	      0.00000000	      0.00000000	      1.98583311	     -9.27591428	    -11.79284785	     31.20160125	     46.96335090	      0.00000000	      0.00000000
     38.14921429	     -2.94071120	     -3.31822476	      4.50912316	      1.11920894	      0.93479909	      0.53388566	      7.62821649	      1.75479451	    -17.01230008	     13.58730415	     13.58730415	     10.17808218	     -1.15749947	     -6.53205709	     31.55389799	     -9.42270911	      0.07571398	     36.85236437	     36.85236437	      8.30565227	    -16.29352271	     10.06721500	    -10.71454328	      5.69145803	      2.71719073	     14.59437759	    -23.03658469	     -1.76075677	     53.89417754	     45.19546538	      0.00000000	      0.00000000	      1.89913276	     -9.18143990	    -11.93360124	     31.18510030	     46.97683065	      0.00000000	      0.00000000
     38.16257143	     -3.07684072	     -3.24919359	      4.89437036	      1.11815895	      0.93464113	      0.53330044	      7.27292436	      1.70534072	    -17.24759064	     13.24502076	     13.24502076	     10.29498522	     -1.16081770	     -6.63843183	     31.68717860	     -8.83621701	      0.44175877	     33.39209359	     33.39209359	      7.89226667	    -14.94908270	     10.26846932	    -10.68121805	      5.69234005	      2.83210311	     15.23513609	    -23.29152594	     -1.69604012	     54.21226896	     45.18812723	      0.00000000	      0.00000000	      1.78739945	     -9.12045838	    -12.06614358	     31.11931974	     46.98885911	      0.00000000	      0.00000000
     38.17592857	     -3.21487856	     -3.24540527	      5.27604979	      1.11725409	      0.93433929	      0.53270512	      6.91872297	      1.72329291	    -17.55323549	     12.92601928	     12.92601928	     10.45746004	     -1.11427540	     -6.76947702	     31.80986084	     -8.35526728	      0.78560117	     30.19601559	     30.19601559	      7.45072341	    -13.33373712	     10.44810882	    -10.60116046	      5.72977141	      2.93492994	     15.85753568	    -23.53608128	     -1.62796924	     54.54217509	     45.17968621	      0.00000000	      0.00000000	      1.66477430	     -9.01889508	    -12.16720058	     31.04815650	     46.99684716	      0.00000000	      0.00000000
     38.18928571	     -3.18111690	     -3.28060084	      5.61997913	      1.11663632	      0.93416112	      0.53200423	      6.30276645	      1.77447429	    -18.11420555	     12.48992314	     12.48992314	     10.49233325	     -0.55415374	     -7.45311212	     31.60849183	     -7.99506583	      0.97367975	     27.09960637	     27.09960637	      6.06875613	    -11.77153178	      8.27139170	    -10.68990907	      5.83946793	      2.83412373	     16.61380410	    -23.92984071	     -0.43651119	     55.06993079	     45.14352557	      0.00000000	      0.00000000	      1.51709282	     -8.87161410	    -13.18416673	     30.91983783	     47.09247514	      0.00000000	      0.00000000
     38.20264286	     -3.27698567	     -3.29605689	      5.90942301	      1.11607575	      0.93381070	      0.53133948	      5.91111038	      1.82277999	    -18.28043485	     12.21417218	     12.21417218	     10.68857675	     -0.56302278	     -7.48562357	     31.64865725	     -7.62132526	      1.15733482	     24.67961518	     24.67961518	      5.65731394	    -10.05441049	      8.66255395	    -10.58764540	      5.87067932	      2.92399018	     17.12296569	    -24.00338395	     -0.43641840	     55.33134281	     45.14017481	      0.00000000	      0.00000000	      1.40245700	     -8.85514226	    -13.25205432	     30.86981644	     47.09459608	      0.00000000	      0.00000000
     38.21600000	     -3.32693835	     -3.32501606	      6.15236066	      1.11573976	      0.93350739	      0.53054027	      5.43661612	      1.88269194	    -18.48406438	     11.90110688	     11.90110688	     10.89382416	     -0.42089959	     -7.53133990	     31.59480349	     -7.32371005	      1.14564748	     22.67066411	     22.67066411	      5.32179251	     -8.39247317	      8.92943008	    -10.49894889	      5.97166452	      2.98267027	     17.61451721	    -24.02649294	     -0.39102764	     55.62837303	     45.13343923	      0.00000000	      0.00000000	      1.26562401	     -8.83990132	    -13.31127164	     30.81060129	     47.09543852	      0.00000000	      0.00000000
